<svg width="248" height="68" viewBox="0 0 248 68" fill="none" xmlns="http://www.w3.org/2000/svg">
<path d="M60.4805 7.29688C59.7526 8.36328 58.9401 9.64128 58.043 11.1309C57.1458 12.6204 56.1895 14.2878 55.1738 16.1328C54.3105 17.6732 53.4557 19.3151 52.6094 21.0586C51.7799 22.7852 50.9844 24.5033 50.2227 26.2129C49.4609 27.9056 48.7585 29.5391 48.1152 31.1133C47.472 32.6706 46.9134 34.0501 46.4395 35.252C45.9655 36.4368 45.5931 37.3932 45.3223 38.1211C45.0514 38.832 44.916 39.196 44.916 39.2129C44.7467 39.6361 44.4421 39.8477 44.002 39.8477C43.7819 39.8477 43.5872 39.7799 43.418 39.6445C43.2487 39.4922 43.1387 39.306 43.0879 39.0859C43.0879 39.069 43.0033 38.7135 42.834 38.0195C42.6816 37.3086 42.4701 36.3691 42.1992 35.2012C41.9284 34.0163 41.6152 32.6621 41.2598 31.1387C40.9212 29.5983 40.5573 27.9987 40.168 26.3398C39.7956 24.6641 39.4147 22.9714 39.0254 21.2617C38.6361 19.5521 38.2721 17.9271 37.9336 16.3867C36.7995 19.5859 35.6569 22.4212 34.5059 24.8926C33.3717 27.347 32.2038 29.4883 31.002 31.3164C29.8001 33.1276 28.556 34.651 27.2695 35.8867C26 37.1224 24.6628 38.1211 23.2578 38.8828C21.8698 39.6276 20.4056 40.1608 18.8652 40.4824C17.3418 40.804 15.7253 40.9648 14.0156 40.9648C13.1354 40.9648 12.196 40.8633 11.1973 40.6602C10.1986 40.474 9.20833 40.1777 8.22656 39.7715C7.24479 39.3652 6.30534 38.8574 5.4082 38.248C4.51107 37.6387 3.71549 36.9193 3.02148 36.0898C2.32747 35.2435 1.77734 34.2956 1.37109 33.2461C0.964844 32.1797 0.761719 30.9948 0.761719 29.6914C0.761719 28.3203 1.04948 27.0677 1.625 25.9336C2.20052 24.7826 2.97917 23.8008 3.96094 22.9883C4.94271 22.1589 6.07682 21.5156 7.36328 21.0586C8.66667 20.6016 10.0378 20.373 11.4766 20.373C12.526 20.373 13.4655 20.4661 14.2949 20.6523C15.1413 20.8216 15.8861 21.0417 16.5293 21.3125C17.1725 21.5833 17.7227 21.8796 18.1797 22.2012C18.6367 22.5228 19.0176 22.819 19.3223 23.0898C19.627 23.3607 19.847 23.5977 19.9824 23.8008C20.1178 23.987 20.194 24.0801 20.2109 24.0801C20.3125 24.2663 20.3633 24.444 20.3633 24.6133C20.3633 24.8503 20.2702 25.0703 20.084 25.2734C19.9147 25.4766 19.6862 25.5781 19.3984 25.5781C19.0599 25.5781 18.7891 25.4342 18.5859 25.1465C18.569 25.1296 18.4336 24.9772 18.1797 24.6895C17.9258 24.3848 17.5111 24.0547 16.9355 23.6992C16.36 23.3438 15.6152 23.0221 14.7012 22.7344C13.804 22.4466 12.7038 22.3027 11.4004 22.3027C10.2155 22.3027 9.08984 22.4889 8.02344 22.8613C6.97396 23.2168 6.05143 23.7246 5.25586 24.3848C4.47721 25.0449 3.85091 25.832 3.37695 26.7461C2.91992 27.6432 2.69141 28.6335 2.69141 29.7168C2.69141 30.7832 2.86914 31.7565 3.22461 32.6367C3.58008 33.5169 4.05404 34.304 4.64648 34.998C5.23893 35.6921 5.92448 36.293 6.70312 36.8008C7.48177 37.3086 8.29427 37.7318 9.14062 38.0703C9.98698 38.3919 10.8333 38.6374 11.6797 38.8066C12.543 38.959 13.3555 39.0352 14.1172 39.0352C15.4036 39.0352 16.6562 38.9421 17.875 38.7559C19.1107 38.5527 20.321 38.1803 21.5059 37.6387C22.7077 37.097 23.8841 36.3522 25.0352 35.4043C26.1862 34.4564 27.3288 33.2207 28.4629 31.6973C29.597 30.1738 30.7142 28.3372 31.8145 26.1875C32.9316 24.0378 34.0488 21.4987 35.166 18.5703C35.5046 17.6901 35.8346 16.7422 36.1562 15.7266C36.4779 14.7109 36.8079 13.6868 37.1465 12.6543C36.8587 11.1647 36.6471 9.89518 36.5117 8.8457C36.3932 7.79622 36.334 6.92448 36.334 6.23047C36.334 5.48568 36.3932 4.89323 36.5117 4.45312C36.6302 4.01302 36.7826 3.68294 36.9688 3.46289C37.1549 3.22591 37.3581 3.08203 37.5781 3.03125C37.7982 2.96354 38.0098 2.92969 38.2129 2.92969C38.3822 2.92969 38.5684 2.96354 38.7715 3.03125C38.9915 3.09896 39.1862 3.2513 39.3555 3.48828C39.5417 3.70833 39.694 4.03841 39.8125 4.47852C39.931 4.91862 39.9902 5.51107 39.9902 6.25586C39.9902 7.06836 39.9141 8.00781 39.7617 9.07422C39.6094 10.1406 39.3809 11.3171 39.0762 12.6035C39.2962 13.6361 39.5501 14.7871 39.8379 16.0566C40.1257 17.3262 40.4219 18.6465 40.7266 20.0176C41.0312 21.3717 41.3444 22.7598 41.666 24.1816C41.9876 25.6035 42.3008 26.9915 42.6055 28.3457C42.9102 29.6999 43.1979 30.9948 43.4688 32.2305C43.7565 33.4661 44.0189 34.5833 44.2559 35.582C44.7129 34.431 45.2715 33.043 45.9316 31.418C46.5918 29.776 47.3281 28.041 48.1406 26.2129C48.9531 24.3678 49.8079 22.4974 50.7051 20.6016C51.6191 18.6888 52.5501 16.8861 53.498 15.1934C54.8353 12.7897 56.0625 10.7331 57.1797 9.02344C58.2969 7.29688 59.2617 5.875 60.0742 4.75781C60.8867 3.64062 61.5215 2.81966 61.9785 2.29492C62.4525 1.75326 62.7064 1.45703 62.7402 1.40625C62.9264 1.22005 63.1549 1.12695 63.4258 1.12695C63.7135 1.12695 63.9421 1.22852 64.1113 1.43164C64.2975 1.61784 64.3906 1.83789 64.3906 2.0918C64.3906 2.21029 64.3652 2.32878 64.3145 2.44727C64.3145 2.46419 64.2129 2.7181 64.0098 3.20898C63.8236 3.68294 63.5781 4.3431 63.2734 5.18945C62.9857 6.01888 62.6641 7.00065 62.3086 8.13477C61.9531 9.25195 61.6061 10.4622 61.2676 11.7656C60.929 13.0521 60.6243 14.4062 60.3535 15.8281C60.0996 17.2331 59.9134 18.638 59.7949 20.043C59.7441 20.6862 59.7018 21.3633 59.668 22.0742C59.6341 22.7682 59.6172 23.4707 59.6172 24.1816C59.6172 25.2988 59.668 26.4245 59.7695 27.5586C59.8711 28.6927 60.0404 29.7845 60.2773 30.834C60.5143 31.8835 60.8359 32.8737 61.2422 33.8047C61.6484 34.7188 62.1478 35.5228 62.7402 36.2168C63.3327 36.9108 64.0352 37.4694 64.8477 37.8926C65.6771 38.3158 66.6335 38.5443 67.7168 38.5781C67.9876 38.5951 68.1992 38.7135 68.3516 38.9336C68.5208 39.1367 68.6055 39.3568 68.6055 39.5938C68.6055 39.8307 68.5124 40.0423 68.3262 40.2285C68.14 40.4147 67.9199 40.5078 67.666 40.5078C67.3952 40.5078 67.1243 40.4824 66.8535 40.4316C65.6348 40.2624 64.5599 39.9154 63.6289 39.3906C62.6979 38.849 61.8939 38.1888 61.2168 37.4102C60.5397 36.6146 59.9727 35.7174 59.5156 34.7188C59.0755 33.7031 58.7201 32.6198 58.4492 31.4688C58.1784 30.3177 57.9837 29.1243 57.8652 27.8887C57.7637 26.6361 57.7129 25.375 57.7129 24.1055C57.7129 22.599 57.7891 21.0924 57.9414 19.5859C58.0938 18.0794 58.2969 16.6152 58.5508 15.1934C58.8047 13.7546 59.1009 12.3665 59.4395 11.0293C59.778 9.69206 60.125 8.44792 60.4805 7.29688Z" fill="black"/>
<path d="M81.7832 37.207C81.36 37.207 80.9876 37.1732 80.666 37.1055C80.4121 37.6133 80.1074 38.0872 79.752 38.5273C79.3965 38.9505 78.9818 39.3229 78.5078 39.6445C78.0508 39.9661 77.5345 40.2201 76.959 40.4062C76.3835 40.5924 75.7572 40.6855 75.0801 40.6855C74.2845 40.6855 73.5566 40.5417 72.8965 40.2539C72.2363 39.9831 71.6608 39.6022 71.1699 39.1113C70.679 38.6035 70.2982 38.0026 70.0273 37.3086C69.7565 36.5977 69.6211 35.819 69.6211 34.9727C69.6211 33.8893 69.8158 32.9499 70.2051 32.1543C70.5944 31.3418 71.043 30.6732 71.5508 30.1484C72.0586 29.6068 72.5664 29.209 73.0742 28.9551C73.582 28.6842 73.9629 28.5488 74.2168 28.5488C74.5046 28.5488 74.7161 28.625 74.8516 28.7773C75.0039 28.9297 75.0801 29.1328 75.0801 29.3867C75.0801 29.6745 74.987 29.8945 74.8008 30.0469C74.6315 30.1823 74.4115 30.3177 74.1406 30.4531C73.8698 30.5885 73.582 30.7832 73.2773 31.0371C72.9727 31.2741 72.6849 31.5788 72.4141 31.9512C72.1602 32.3236 71.9486 32.7637 71.7793 33.2715C71.61 33.7793 71.5254 34.3464 71.5254 34.9727C71.5254 35.5312 71.61 36.056 71.7793 36.5469C71.9486 37.0208 72.194 37.4355 72.5156 37.791C72.8372 38.1296 73.2181 38.4004 73.6582 38.6035C74.0983 38.7897 74.5892 38.8828 75.1309 38.8828C76.0957 38.8828 76.8913 38.6628 77.5176 38.2227C78.1608 37.7656 78.6517 37.1901 78.9902 36.4961C77.9915 35.9714 77.1706 35.2266 76.5273 34.2617C75.8841 33.2969 75.5625 32.2135 75.5625 31.0117C75.5625 30.0469 75.791 29.2598 76.248 28.6504C76.722 28.041 77.3398 27.7363 78.1016 27.7363C78.5586 27.7363 78.9902 27.8464 79.3965 28.0664C79.8027 28.2865 80.1582 28.6335 80.4629 29.1074C80.7845 29.5814 81.0384 30.1908 81.2246 30.9355C81.4108 31.6803 81.5039 32.569 81.5039 33.6016C81.5039 34.1432 81.4362 34.7103 81.3008 35.3027C81.4023 35.3197 81.5039 35.3281 81.6055 35.3281C81.707 35.3281 81.8171 35.3281 81.9355 35.3281C82.5111 35.3281 83.0273 35.2604 83.4844 35.125C83.9414 34.9896 84.3561 34.7865 84.7285 34.5156C85.1009 34.2448 85.431 33.8978 85.7188 33.4746C86.0234 33.0514 86.3112 32.5605 86.582 32.002C86.6328 31.9004 86.7428 31.8073 86.9121 31.7227C87.0814 31.6211 87.2507 31.5703 87.4199 31.5703C87.64 31.5703 87.8431 31.6634 88.0293 31.8496C88.2324 32.0189 88.334 32.2474 88.334 32.5352C88.334 32.6706 88.3001 32.8229 88.2324 32.9922C88.1647 33.1445 88.097 33.2884 88.0293 33.4238C87.7415 33.9316 87.403 34.4225 87.0137 34.8965C86.6413 35.3535 86.1927 35.7598 85.668 36.1152C85.1602 36.4538 84.5846 36.7246 83.9414 36.9277C83.2982 37.1309 82.5788 37.224 81.7832 37.207ZM77.4414 30.8086C77.4414 31.1302 77.4837 31.4688 77.5684 31.8242C77.653 32.1797 77.7799 32.5352 77.9492 32.8906C78.1354 33.2292 78.3555 33.5592 78.6094 33.8809C78.8802 34.1855 79.1934 34.4479 79.5488 34.668C79.5996 34.3125 79.625 33.9655 79.625 33.627C79.625 33.1699 79.5911 32.7044 79.5234 32.2305C79.4557 31.7565 79.3542 31.3249 79.2188 30.9355C79.1003 30.5293 78.9479 30.2077 78.7617 29.9707C78.5755 29.7168 78.3555 29.5898 78.1016 29.5898C78 29.5898 77.8646 29.666 77.6953 29.8184C77.526 29.9707 77.4414 30.3008 77.4414 30.8086Z" fill="black"/>
<path d="M98.2363 37.207C97.8132 37.207 97.4408 37.1732 97.1191 37.1055C96.8652 37.6133 96.5605 38.0872 96.2051 38.5273C95.8496 38.9505 95.4349 39.3229 94.9609 39.6445C94.5039 39.9661 93.9876 40.2201 93.4121 40.4062C92.8366 40.5924 92.2103 40.6855 91.5332 40.6855C90.7376 40.6855 90.0098 40.5417 89.3496 40.2539C88.6895 39.9831 88.1139 39.6022 87.623 39.1113C87.1322 38.6035 86.7513 38.0026 86.4805 37.3086C86.2096 36.5977 86.0742 35.819 86.0742 34.9727C86.0742 33.8893 86.2689 32.9499 86.6582 32.1543C87.0475 31.3418 87.4961 30.6732 88.0039 30.1484C88.5117 29.6068 89.0195 29.209 89.5273 28.9551C90.0352 28.6842 90.416 28.5488 90.6699 28.5488C90.9577 28.5488 91.1693 28.625 91.3047 28.7773C91.457 28.9297 91.5332 29.1328 91.5332 29.3867C91.5332 29.6745 91.4401 29.8945 91.2539 30.0469C91.0846 30.1823 90.8646 30.3177 90.5938 30.4531C90.3229 30.5885 90.0352 30.7832 89.7305 31.0371C89.4258 31.2741 89.138 31.5788 88.8672 31.9512C88.6133 32.3236 88.4017 32.7637 88.2324 33.2715C88.0632 33.7793 87.9785 34.3464 87.9785 34.9727C87.9785 35.5312 88.0632 36.056 88.2324 36.5469C88.4017 37.0208 88.6471 37.4355 88.9688 37.791C89.2904 38.1296 89.6712 38.4004 90.1113 38.6035C90.5514 38.7897 91.0423 38.8828 91.584 38.8828C92.5488 38.8828 93.3444 38.6628 93.9707 38.2227C94.6139 37.7656 95.1048 37.1901 95.4434 36.4961C94.4447 35.9714 93.6237 35.2266 92.9805 34.2617C92.3372 33.2969 92.0156 32.2135 92.0156 31.0117C92.0156 30.0469 92.2441 29.2598 92.7012 28.6504C93.1751 28.041 93.793 27.7363 94.5547 27.7363C95.0117 27.7363 95.4434 27.8464 95.8496 28.0664C96.2559 28.2865 96.6113 28.6335 96.916 29.1074C97.2376 29.5814 97.4915 30.1908 97.6777 30.9355C97.8639 31.6803 97.957 32.569 97.957 33.6016C97.957 34.1432 97.8893 34.7103 97.7539 35.3027C97.8555 35.3197 97.957 35.3281 98.0586 35.3281C98.1602 35.3281 98.2702 35.3281 98.3887 35.3281C98.9642 35.3281 99.4805 35.2604 99.9375 35.125C100.395 34.9896 100.809 34.7865 101.182 34.5156C101.554 34.2448 101.884 33.8978 102.172 33.4746C102.477 33.0514 102.764 32.5605 103.035 32.002C103.086 31.9004 103.196 31.8073 103.365 31.7227C103.535 31.6211 103.704 31.5703 103.873 31.5703C104.093 31.5703 104.296 31.6634 104.482 31.8496C104.686 32.0189 104.787 32.2474 104.787 32.5352C104.787 32.6706 104.753 32.8229 104.686 32.9922C104.618 33.1445 104.55 33.2884 104.482 33.4238C104.195 33.9316 103.856 34.4225 103.467 34.8965C103.094 35.3535 102.646 35.7598 102.121 36.1152C101.613 36.4538 101.038 36.7246 100.395 36.9277C99.7513 37.1309 99.0319 37.224 98.2363 37.207ZM93.8945 30.8086C93.8945 31.1302 93.9368 31.4688 94.0215 31.8242C94.1061 32.1797 94.2331 32.5352 94.4023 32.8906C94.5885 33.2292 94.8086 33.5592 95.0625 33.8809C95.3333 34.1855 95.6465 34.4479 96.002 34.668C96.0527 34.3125 96.0781 33.9655 96.0781 33.627C96.0781 33.1699 96.0443 32.7044 95.9766 32.2305C95.9089 31.7565 95.8073 31.3249 95.6719 30.9355C95.5534 30.5293 95.401 30.2077 95.2148 29.9707C95.0286 29.7168 94.8086 29.5898 94.5547 29.5898C94.4531 29.5898 94.3177 29.666 94.1484 29.8184C93.9792 29.9707 93.8945 30.3008 93.8945 30.8086Z" fill="black"/>
<path d="M112.836 32.6113C113.665 36.5215 114.867 38.4766 116.441 38.4766C117.051 38.4766 117.635 38.2565 118.193 37.8164C118.752 37.3594 119.268 36.8092 119.742 36.166C120.233 35.5059 120.665 34.8118 121.037 34.084C121.41 33.3561 121.714 32.7214 121.951 32.1797C122.12 31.7734 122.417 31.5703 122.84 31.5703C123.111 31.5703 123.339 31.6719 123.525 31.875C123.712 32.0781 123.805 32.2982 123.805 32.5352C123.805 32.6706 123.779 32.7891 123.729 32.8906C123.61 33.1784 123.432 33.5677 123.195 34.0586C122.975 34.5326 122.696 35.0488 122.357 35.6074C122.036 36.1491 121.672 36.7077 121.266 37.2832C120.859 37.8587 120.411 38.375 119.92 38.832C119.429 39.2891 118.904 39.6699 118.346 39.9746C117.804 40.2624 117.229 40.4062 116.619 40.4062C115.485 40.4062 114.512 40.0169 113.699 39.2383C112.887 38.4427 112.184 37.1393 111.592 35.3281C110.779 37.0547 109.958 38.3073 109.129 39.0859C108.299 39.8646 107.402 40.2539 106.438 40.2539C105.93 40.2539 105.439 40.1693 104.965 40C104.491 39.8477 104.076 39.5853 103.721 39.2129C103.365 38.8405 103.077 38.3665 102.857 37.791C102.637 37.1986 102.527 36.4792 102.527 35.6328C102.527 34.4648 102.73 33.39 103.137 32.4082C103.543 31.4264 104.068 30.5885 104.711 29.8945C105.354 29.1836 106.065 28.6335 106.844 28.2441C107.639 27.8548 108.426 27.6602 109.205 27.6602C109.459 27.6602 109.679 27.7533 109.865 27.9395C110.051 28.1087 110.145 28.3288 110.145 28.5996C110.145 28.8366 110.068 29.0482 109.916 29.2344C109.764 29.4206 109.561 29.5306 109.307 29.5645C108.799 29.6322 108.257 29.793 107.682 30.0469C107.106 30.3008 106.573 30.6732 106.082 31.1641C105.608 31.638 105.21 32.2474 104.889 32.9922C104.584 33.737 104.432 34.6257 104.432 35.6582C104.432 36.5046 104.601 37.1647 104.939 37.6387C105.295 38.1126 105.803 38.3496 106.463 38.3496C106.734 38.3496 107.021 38.2819 107.326 38.1465C107.631 37.9941 107.952 37.7064 108.291 37.2832C108.646 36.86 109.027 36.2591 109.434 35.4805C109.857 34.7018 110.322 33.6777 110.83 32.4082C110.542 30.9186 110.28 29.2005 110.043 27.2539C109.806 25.3073 109.688 23.1322 109.688 20.7285C109.688 19.679 109.721 18.5872 109.789 17.4531C109.857 16.3021 109.967 15.1849 110.119 14.1016C110.271 13.0013 110.475 11.9603 110.729 10.9785C110.982 9.99674 111.287 9.13346 111.643 8.38867C112.015 7.64388 112.447 7.0599 112.938 6.63672C113.428 6.19661 113.987 5.97656 114.613 5.97656C115.172 5.97656 115.646 6.12891 116.035 6.43359C116.424 6.73828 116.738 7.16146 116.975 7.70312C117.229 8.24479 117.415 8.89648 117.533 9.6582C117.652 10.4199 117.711 11.2578 117.711 12.1719C117.711 14.1354 117.542 16.099 117.203 18.0625C116.865 20.026 116.441 21.9049 115.934 23.6992C115.443 25.4935 114.918 27.1523 114.359 28.6758C113.801 30.1992 113.293 31.5111 112.836 32.6113ZM115.807 12.1465C115.807 11.7233 115.79 11.2663 115.756 10.7754C115.739 10.2845 115.68 9.82747 115.578 9.4043C115.493 8.96419 115.375 8.60026 115.223 8.3125C115.07 8.02474 114.867 7.88086 114.613 7.88086C114.19 7.88086 113.792 8.25326 113.42 8.99805C113.064 9.74284 112.751 10.7246 112.48 11.9434C112.21 13.1452 111.99 14.5163 111.82 16.0566C111.668 17.5801 111.592 19.1204 111.592 20.6777C111.592 22.1673 111.651 23.6569 111.77 25.1465C111.888 26.6361 112.023 27.9648 112.176 29.1328C112.667 27.8294 113.132 26.4922 113.572 25.1211C114.012 23.7331 114.393 22.3197 114.715 20.8809C115.053 19.4421 115.316 17.9948 115.502 16.5391C115.705 15.0664 115.807 13.6022 115.807 12.1465Z" fill="black"/>
<path d="M188.551 1.8125C188.517 2.06641 188.407 2.26953 188.221 2.42188C188.035 2.57422 187.823 2.65039 187.586 2.65039C187.552 2.65039 187.493 2.65039 187.408 2.65039C187.324 2.63346 187.129 2.625 186.824 2.625C186.503 2.625 186.088 2.65885 185.58 2.72656C185.089 2.79427 184.539 2.93815 183.93 3.1582C183.337 3.36133 182.711 3.66602 182.051 4.07227C181.408 4.47852 180.773 5.02865 180.146 5.72266C179.52 6.39974 178.928 7.24609 178.369 8.26172C177.811 9.26042 177.337 10.4707 176.947 11.8926C176.744 12.6035 176.507 13.6276 176.236 14.9648C175.982 16.2852 175.703 17.7747 175.398 19.4336C175.111 21.0924 174.814 22.8613 174.51 24.7402C174.222 26.6191 173.943 28.4642 173.672 30.2754C173.418 32.0866 173.181 33.8132 172.961 35.4551C172.741 37.0801 172.572 38.4766 172.453 39.6445C172.419 39.8646 172.318 40.0592 172.148 40.2285C171.996 40.4147 171.801 40.5078 171.564 40.5078C171.327 40.5078 171.116 40.4486 170.93 40.3301C170.76 40.2116 170.642 40.0339 170.574 39.7969C170.354 38.9844 170.007 37.8587 169.533 36.4199C169.059 34.9811 168.509 33.3646 167.883 31.5703C167.273 29.7591 166.605 27.8379 165.877 25.8066C165.149 23.7754 164.421 21.7695 163.693 19.7891C162.982 17.7917 162.288 15.8874 161.611 14.0762C160.951 12.248 160.367 10.64 159.859 9.25195C159.775 10.1999 159.639 11.2578 159.453 12.4258C159.284 13.5768 159.047 14.821 158.742 16.1582C158.454 17.4785 158.09 18.8835 157.65 20.373C157.21 21.8457 156.686 23.3776 156.076 24.9688C155.128 27.4062 154.011 29.4883 152.725 31.2148C151.455 32.9414 150.118 34.3802 148.713 35.5312C147.308 36.6823 145.878 37.5964 144.422 38.2734C142.983 38.9336 141.629 39.4329 140.359 39.7715C139.09 40.11 137.947 40.3216 136.932 40.4062C135.916 40.5078 135.137 40.5586 134.596 40.5586C132.734 40.5586 131.016 40.3132 129.441 39.8223C127.884 39.3314 126.53 38.6374 125.379 37.7402C124.245 36.8262 123.356 35.7428 122.713 34.4902C122.087 33.2207 121.773 31.8242 121.773 30.3008C121.773 28.9297 122.078 27.6517 122.688 26.4668C123.314 25.265 124.143 24.224 125.176 23.3438C126.225 22.4635 127.419 21.7695 128.756 21.2617C130.11 20.7539 131.515 20.5 132.971 20.5C134.173 20.5 135.247 20.6185 136.195 20.8555C137.16 21.0924 138.007 21.3971 138.734 21.7695C139.479 22.125 140.114 22.5143 140.639 22.9375C141.18 23.3607 141.62 23.7669 141.959 24.1562C142.314 24.5286 142.577 24.8503 142.746 25.1211C142.932 25.3919 143.042 25.5527 143.076 25.6035C143.144 25.7389 143.178 25.8913 143.178 26.0605C143.178 26.2975 143.085 26.5176 142.898 26.7207C142.729 26.9238 142.501 27.0254 142.213 27.0254C141.84 27.0254 141.561 26.8561 141.375 26.5176C141.358 26.4668 141.189 26.2298 140.867 25.8066C140.562 25.3665 140.08 24.8926 139.42 24.3848C138.777 23.877 137.939 23.4199 136.906 23.0137C135.874 22.5905 134.621 22.3789 133.148 22.3789C131.947 22.3789 130.77 22.582 129.619 22.9883C128.485 23.3945 127.478 23.9531 126.598 24.6641C125.717 25.375 125.007 26.2214 124.465 27.2031C123.94 28.168 123.678 29.2174 123.678 30.3516C123.678 31.5872 123.965 32.7214 124.541 33.7539C125.117 34.7695 125.895 35.6413 126.877 36.3691C127.876 37.097 129.027 37.6641 130.33 38.0703C131.65 38.4596 133.055 38.6543 134.545 38.6543C135.12 38.6543 135.882 38.612 136.83 38.5273C137.778 38.4427 138.836 38.248 140.004 37.9434C141.189 37.6387 142.433 37.1816 143.736 36.5723C145.04 35.946 146.326 35.0996 147.596 34.0332C148.865 32.9668 150.076 31.638 151.227 30.0469C152.395 28.4557 153.419 26.526 154.299 24.2578C155.213 21.9219 155.924 19.7044 156.432 17.6055C156.956 15.4896 157.346 13.5853 157.6 11.8926C157.854 10.1999 158.006 8.76107 158.057 7.57617C158.124 6.37435 158.158 5.51953 158.158 5.01172V4.50391C158.158 4.23307 158.243 4.00456 158.412 3.81836C158.598 3.61523 158.835 3.51367 159.123 3.51367C159.546 3.51367 159.842 3.72526 160.012 4.14844C160.062 4.26693 160.206 4.66471 160.443 5.3418C160.697 6.01888 161.019 6.89909 161.408 7.98242C161.814 9.04883 162.271 10.2845 162.779 11.6895C163.304 13.0944 163.854 14.5924 164.43 16.1836C165.005 17.7578 165.598 19.3913 166.207 21.084C166.816 22.7767 167.409 24.444 167.984 26.0859C168.577 27.7279 169.135 29.3105 169.66 30.834C170.185 32.3574 170.659 33.7454 171.082 34.998C171.268 33.6439 171.471 32.2135 171.691 30.707C171.911 29.1836 172.14 27.6517 172.377 26.1113C172.631 24.554 172.876 23.0306 173.113 21.541C173.367 20.0514 173.613 18.6549 173.85 17.3516C174.104 16.0482 174.332 14.8802 174.535 13.8477C174.738 12.8151 174.924 11.9857 175.094 11.3594C175.466 9.86979 175.999 8.48177 176.693 7.19531C177.387 5.89193 178.225 4.75781 179.207 3.79297C180.206 2.82812 181.34 2.07487 182.609 1.5332C183.896 0.974609 185.318 0.695312 186.875 0.695312C187.467 0.695312 187.891 0.763021 188.145 0.898438C188.415 1.03385 188.551 1.29622 188.551 1.68555V1.8125Z" fill="black"/>
<path d="M184.768 20.0684C184.768 20.7116 184.539 21.2617 184.082 21.7188C183.642 22.1589 183.1 22.3789 182.457 22.3789C181.814 22.3789 181.264 22.1589 180.807 21.7188C180.367 21.2617 180.146 20.7116 180.146 20.0684C180.146 19.7467 180.206 19.4505 180.324 19.1797C180.443 18.8919 180.604 18.6465 180.807 18.4434C181.027 18.2233 181.272 18.054 181.543 17.9355C181.831 17.8171 182.135 17.7578 182.457 17.7578C182.779 17.7578 183.075 17.8171 183.346 17.9355C183.633 18.054 183.879 18.2233 184.082 18.4434C184.302 18.6465 184.471 18.8919 184.59 19.1797C184.708 19.4505 184.768 19.7467 184.768 20.0684ZM180.654 34.9473C180.654 32.5098 180.807 30.0807 181.111 27.6602C181.145 27.4232 181.247 27.2201 181.416 27.0508C181.602 26.8646 181.839 26.7715 182.127 26.7715C182.381 26.7715 182.592 26.873 182.762 27.0762C182.931 27.2624 183.016 27.4824 183.016 27.7363C183.016 27.8379 182.99 28.1426 182.939 28.6504C182.906 29.1582 182.855 29.7676 182.787 30.4785C182.736 31.1725 182.686 31.9173 182.635 32.7129C182.601 33.4915 182.584 34.2109 182.584 34.8711C182.584 35.7682 182.669 36.4961 182.838 37.0547C183.024 37.5964 183.253 38.0195 183.523 38.3242C183.811 38.6289 184.107 38.832 184.412 38.9336C184.734 39.0352 185.038 39.0859 185.326 39.0859C185.8 39.0859 186.291 38.9167 186.799 38.5781C187.307 38.2396 187.823 37.7656 188.348 37.1562C188.889 36.5469 189.431 35.819 189.973 34.9727C190.514 34.1094 191.048 33.153 191.572 32.1035C191.657 31.9342 191.775 31.8073 191.928 31.7227C192.08 31.6211 192.249 31.5703 192.436 31.5703C192.706 31.5703 192.926 31.6719 193.096 31.875C193.282 32.0781 193.375 32.2982 193.375 32.5352C193.375 32.7044 193.341 32.8483 193.273 32.9668C193.07 33.3561 192.816 33.8301 192.512 34.3887C192.207 34.9473 191.86 35.5228 191.471 36.1152C191.081 36.7077 190.65 37.3001 190.176 37.8926C189.719 38.4681 189.228 38.9928 188.703 39.4668C188.178 39.9238 187.628 40.2962 187.053 40.584C186.477 40.8717 185.893 41.0156 185.301 41.0156C184.539 41.0156 183.87 40.8548 183.295 40.5332C182.719 40.2116 182.229 39.7799 181.822 39.2383C181.433 38.6966 181.137 38.0618 180.934 37.334C180.747 36.5892 180.654 35.7936 180.654 34.9473ZM183.346 20.0684C183.346 19.8314 183.253 19.6283 183.066 19.459C182.897 19.2728 182.694 19.1797 182.457 19.1797C182.22 19.1797 182.017 19.2728 181.848 19.459C181.678 19.6283 181.594 19.8314 181.594 20.0684C181.594 20.3053 181.678 20.5085 181.848 20.6777C182.017 20.847 182.22 20.9316 182.457 20.9316C182.694 20.9316 182.897 20.847 183.066 20.6777C183.253 20.5085 183.346 20.3053 183.346 20.0684Z" fill="black"/>
<path d="M200.738 42.4883C203.921 38.3411 206.13 34.8965 207.365 32.1543C207.45 31.9681 207.56 31.8327 207.695 31.748C207.848 31.6465 208.017 31.5957 208.203 31.5957C208.491 31.5957 208.728 31.6973 208.914 31.9004C209.1 32.0866 209.193 32.3066 209.193 32.5605C209.193 32.679 209.168 32.7975 209.117 32.916C208.372 34.6087 207.314 36.4961 205.943 38.5781C204.572 40.6602 202.837 43.013 200.738 45.6367C200.738 46.7031 200.747 47.7695 200.764 48.8359C200.781 49.9023 200.789 51.0703 200.789 52.3398C200.789 53.6094 200.755 54.862 200.688 56.0977C200.637 57.3503 200.535 58.5352 200.383 59.6523C200.23 60.7865 200.019 61.8275 199.748 62.7754C199.494 63.7402 199.156 64.5697 198.732 65.2637C198.326 65.9746 197.827 66.5247 197.234 66.9141C196.659 67.3203 195.973 67.5234 195.178 67.5234C194.044 67.5234 193.172 67.0918 192.562 66.2285C191.953 65.3652 191.648 64.138 191.648 62.5469C191.648 61.7005 191.725 60.778 191.877 59.7793C192.046 58.7975 192.283 57.7819 192.588 56.7324C192.893 55.6829 193.257 54.6165 193.68 53.5332C194.12 52.4668 194.602 51.4258 195.127 50.4102C195.652 49.3945 196.219 48.4212 196.828 47.4902C197.454 46.5592 198.115 45.7129 198.809 44.9512C198.826 43.7663 198.834 42.5898 198.834 41.4219C198.851 40.2539 198.876 39.179 198.91 38.1973C198.402 38.8405 197.793 39.3483 197.082 39.7207C196.388 40.0931 195.694 40.2793 195 40.2793C194.408 40.2793 193.866 40.1693 193.375 39.9492C192.901 39.7122 192.495 39.3906 192.156 38.9844C191.818 38.5612 191.555 38.0703 191.369 37.5117C191.183 36.9531 191.09 36.3438 191.09 35.6836C191.09 34.3633 191.31 33.2038 191.75 32.2051C192.207 31.1895 192.783 30.3431 193.477 29.666C194.171 28.9889 194.932 28.4811 195.762 28.1426C196.608 27.804 197.421 27.6348 198.199 27.6348C198.724 27.6348 199.206 27.7025 199.646 27.8379C200.087 27.9733 200.459 28.1257 200.764 28.2949C201.085 28.4642 201.331 28.625 201.5 28.7773C201.669 28.9297 201.762 29.0143 201.779 29.0312C201.965 29.2344 202.059 29.4629 202.059 29.7168C202.059 29.9707 201.965 30.1992 201.779 30.4023C201.593 30.5885 201.373 30.6816 201.119 30.6816C200.882 30.6816 200.654 30.5885 200.434 30.4023C200.366 30.3516 200.273 30.2839 200.154 30.1992C200.053 30.0977 199.909 29.9961 199.723 29.8945C199.553 29.793 199.342 29.7083 199.088 29.6406C198.851 29.5729 198.563 29.5391 198.225 29.5391C197.717 29.5391 197.158 29.6576 196.549 29.8945C195.939 30.1146 195.372 30.4701 194.848 30.9609C194.323 31.4518 193.883 32.0866 193.527 32.8652C193.172 33.627 192.994 34.5495 192.994 35.6328C192.994 36.4453 193.172 37.1055 193.527 37.6133C193.883 38.1042 194.433 38.3496 195.178 38.3496C195.533 38.3496 195.906 38.248 196.295 38.0449C196.701 37.8418 197.09 37.5286 197.463 37.1055C197.835 36.6823 198.157 36.1491 198.428 35.5059C198.715 34.8626 198.919 34.1009 199.037 33.2207C199.071 32.9837 199.181 32.7891 199.367 32.6367C199.553 32.4674 199.773 32.3828 200.027 32.3828C200.315 32.3828 200.535 32.4844 200.688 32.6875C200.857 32.8906 200.941 33.1191 200.941 33.373C200.941 33.39 200.933 33.6523 200.916 34.1602C200.899 34.651 200.882 35.3112 200.865 36.1406C200.848 36.9701 200.823 37.9349 200.789 39.0352C200.772 40.1185 200.755 41.2695 200.738 42.4883ZM198.809 48.0488C198.013 49.1491 197.294 50.3424 196.65 51.6289C196.007 52.9323 195.457 54.2441 195 55.5645C194.543 56.8848 194.188 58.1628 193.934 59.3984C193.697 60.651 193.578 61.7682 193.578 62.75C193.578 63.3763 193.629 63.8757 193.73 64.248C193.849 64.6204 193.984 64.9082 194.137 65.1113C194.306 65.3145 194.484 65.4499 194.67 65.5176C194.873 65.5853 195.059 65.6191 195.229 65.6191C195.753 65.6191 196.21 65.4076 196.6 64.9844C196.989 64.5612 197.319 63.9941 197.59 63.2832C197.861 62.5892 198.081 61.7852 198.25 60.8711C198.419 59.957 198.546 59.0091 198.631 58.0273C198.715 57.0625 198.775 56.0977 198.809 55.1328C198.842 54.168 198.859 53.2793 198.859 52.4668C198.859 51.7389 198.859 51.0111 198.859 50.2832C198.859 49.5553 198.842 48.8105 198.809 48.0488Z" fill="black"/>
<path d="M209.396 37.8418C209.667 37.2663 209.98 36.6484 210.336 35.9883C210.691 35.3112 211.072 34.6257 211.479 33.9316C211.885 33.2207 212.316 32.5182 212.773 31.8242C213.23 31.1302 213.704 30.4785 214.195 29.8691C214.686 29.2767 215.177 28.8535 215.668 28.5996C216.176 28.3288 216.65 28.1934 217.09 28.1934C217.53 28.1934 217.911 28.2865 218.232 28.4727C218.571 28.6419 218.842 28.8789 219.045 29.1836C219.265 29.4883 219.426 29.8438 219.527 30.25C219.646 30.6562 219.705 31.0964 219.705 31.5703C219.705 31.9596 219.663 32.4844 219.578 33.1445C219.51 33.7878 219.477 34.4648 219.477 35.1758C219.477 35.582 219.493 35.9883 219.527 36.3945C219.578 36.7839 219.654 37.1393 219.756 37.4609C219.874 37.7656 220.044 38.0195 220.264 38.2227C220.484 38.4089 220.771 38.502 221.127 38.502C221.533 38.502 221.939 38.3919 222.346 38.1719C222.752 37.9349 223.15 37.6302 223.539 37.2578C223.928 36.8685 224.301 36.4453 224.656 35.9883C225.012 35.5143 225.333 35.0488 225.621 34.5918C225.909 34.1178 226.163 33.6693 226.383 33.2461C226.603 32.806 226.781 32.4421 226.916 32.1543C227.085 31.765 227.382 31.5703 227.805 31.5703C228.092 31.5703 228.321 31.6719 228.49 31.875C228.66 32.0781 228.744 32.2982 228.744 32.5352C228.744 32.6706 228.719 32.7975 228.668 32.916C228.6 33.0514 228.465 33.3307 228.262 33.7539C228.076 34.1771 227.813 34.668 227.475 35.2266C227.153 35.7852 226.772 36.3691 226.332 36.9785C225.892 37.5879 225.401 38.1549 224.859 38.6797C224.335 39.1875 223.759 39.6107 223.133 39.9492C222.523 40.2708 221.88 40.4316 221.203 40.4316C220.424 40.4316 219.798 40.2708 219.324 39.9492C218.85 39.6107 218.478 39.1875 218.207 38.6797C217.953 38.1719 217.775 37.6048 217.674 36.9785C217.589 36.3522 217.547 35.7428 217.547 35.1504C217.547 34.8457 217.555 34.5241 217.572 34.1855C217.606 33.8301 217.64 33.4831 217.674 33.1445C217.708 32.806 217.733 32.4928 217.75 32.2051C217.784 31.9004 217.801 31.6465 217.801 31.4434C217.801 30.9186 217.725 30.5632 217.572 30.377C217.437 30.1908 217.276 30.0977 217.09 30.0977C216.819 30.0977 216.506 30.2585 216.15 30.5801C215.812 30.8848 215.448 31.291 215.059 31.7988C214.686 32.3066 214.305 32.8822 213.916 33.5254C213.544 34.1517 213.18 34.778 212.824 35.4043C212.469 36.0306 212.147 36.6315 211.859 37.207C211.572 37.7656 211.335 38.2311 211.148 38.6035C210.793 39.3145 210.429 39.7884 210.057 40.0254C209.701 40.2793 209.38 40.4062 209.092 40.4062C208.567 40.4062 208.161 40.2031 207.873 39.7969C207.602 39.3737 207.467 38.8659 207.467 38.2734V36.6738C207.467 33.4746 207.467 30.4277 207.467 27.5332C207.484 24.6217 207.526 21.9219 207.594 19.4336C207.678 16.9284 207.805 14.6686 207.975 12.6543C208.161 10.623 208.432 8.89648 208.787 7.47461C209.143 6.03581 209.591 4.92708 210.133 4.14844C210.691 3.36979 211.385 2.98047 212.215 2.98047C212.926 2.98047 213.527 3.17513 214.018 3.56445C214.508 3.95378 214.906 4.48698 215.211 5.16406C215.516 5.82422 215.736 6.60286 215.871 7.5C216.007 8.38021 216.074 9.3112 216.074 10.293C216.074 12.2904 215.888 14.2539 215.516 16.1836C215.16 18.0964 214.678 19.9668 214.068 21.7949C213.459 23.623 212.748 25.4089 211.936 27.1523C211.123 28.8789 210.268 30.5632 209.371 32.2051C209.371 32.5098 209.371 32.8737 209.371 33.2969C209.371 33.7201 209.371 34.1432 209.371 34.5664C209.371 34.9896 209.371 35.3874 209.371 35.7598C209.371 36.1322 209.371 36.4284 209.371 36.6484L209.396 37.8418ZM209.396 28.4727C210.107 26.9154 210.751 25.4004 211.326 23.9277C211.919 22.4382 212.418 20.957 212.824 19.4844C213.247 18.0117 213.577 16.5221 213.814 15.0156C214.051 13.4922 214.17 11.9095 214.17 10.2676C214.17 9.99674 214.153 9.5651 214.119 8.97266C214.102 8.38021 214.026 7.7793 213.891 7.16992C213.772 6.56055 213.577 6.02734 213.307 5.57031C213.053 5.11328 212.689 4.88477 212.215 4.88477C211.842 4.88477 211.521 5.13867 211.25 5.64648C210.979 6.13737 210.742 6.81445 210.539 7.67773C210.336 8.52409 210.167 9.51432 210.031 10.6484C209.896 11.7826 209.786 12.9844 209.701 14.2539C209.617 15.5234 209.549 16.8268 209.498 18.1641C209.464 19.5013 209.439 20.8047 209.422 22.0742C209.405 23.3268 209.396 24.5033 209.396 25.6035C209.396 26.7038 209.396 27.6602 209.396 28.4727Z" fill="black"/>
<path d="M247.508 14.584C247.508 14.8548 247.415 15.0749 247.229 15.2441C247.042 15.3965 246.814 15.4727 246.543 15.4727H233.67V15.752C233.67 16.7845 233.594 17.8848 233.441 19.0527C233.289 20.2207 233.077 21.3887 232.807 22.5566C232.553 23.7077 232.257 24.8333 231.918 25.9336C231.596 27.0339 231.258 28.0495 230.902 28.9805C230.564 29.9115 230.225 30.724 229.887 31.418C229.548 32.0951 229.243 32.6029 228.973 32.9414C229.193 33.7201 229.455 34.4479 229.76 35.125C230.064 35.7852 230.403 36.3691 230.775 36.877C231.165 37.3678 231.579 37.7572 232.02 38.0449C232.46 38.3327 232.934 38.4766 233.441 38.4766C234.034 38.4766 234.618 38.2311 235.193 37.7402C235.786 37.2324 236.327 36.64 236.818 35.9629C237.326 35.2689 237.766 34.5749 238.139 33.8809C238.528 33.1699 238.807 32.6029 238.977 32.1797C239.146 31.7734 239.442 31.5703 239.865 31.5703C240.153 31.5703 240.382 31.6719 240.551 31.875C240.737 32.0781 240.83 32.2982 240.83 32.5352C240.83 32.6536 240.805 32.7721 240.754 32.8906C240.703 33.0091 240.576 33.2799 240.373 33.7031C240.187 34.1263 239.933 34.6172 239.611 35.1758C239.307 35.7344 238.943 36.3268 238.52 36.9531C238.113 37.5625 237.648 38.1211 237.123 38.6289C236.615 39.1367 236.065 39.5599 235.473 39.8984C234.88 40.237 234.254 40.4062 233.594 40.4062C232.426 40.4062 231.376 40.0254 230.445 39.2637C229.514 38.502 228.719 37.4355 228.059 36.0645C227.415 34.6934 226.924 33.0684 226.586 31.1895C226.247 29.3105 226.078 27.2539 226.078 25.0195C226.078 24.4609 226.087 23.8092 226.104 23.0645C226.12 22.3027 226.154 21.5072 226.205 20.6777C226.256 19.8314 226.332 18.9681 226.434 18.0879C226.535 17.1908 226.671 16.319 226.84 15.4727H217.725C217.454 15.4727 217.225 15.3965 217.039 15.2441C216.853 15.0749 216.76 14.8548 216.76 14.584C216.76 14.3132 216.853 14.1016 217.039 13.9492C217.225 13.7799 217.454 13.6953 217.725 13.6953H227.271C227.441 13.0859 227.635 12.5273 227.855 12.0195C228.092 11.5117 228.355 11.0716 228.643 10.6992C228.947 10.3268 229.277 10.0391 229.633 9.83594C230.005 9.61589 230.411 9.50586 230.852 9.50586C231.275 9.50586 231.639 9.61589 231.943 9.83594C232.265 10.0391 232.536 10.3268 232.756 10.6992C232.976 11.0716 233.145 11.5117 233.264 12.0195C233.399 12.5273 233.501 13.0859 233.568 13.6953H246.543C246.814 13.6953 247.042 13.7799 247.229 13.9492C247.415 14.1016 247.508 14.3132 247.508 14.584ZM228.389 30.4023C228.896 29.2852 229.354 28.0833 229.76 26.7969C230.183 25.4935 230.538 24.1816 230.826 22.8613C231.131 21.541 231.359 20.2461 231.512 18.9766C231.681 17.707 231.766 16.5391 231.766 15.4727H228.77C228.533 16.5221 228.338 17.8255 228.186 19.3828C228.05 20.9232 227.982 22.8021 227.982 25.0195C227.982 26.2552 228.016 27.2962 228.084 28.1426C228.152 28.972 228.253 29.7253 228.389 30.4023ZM230.75 11.4102C230.598 11.4102 230.378 11.5794 230.09 11.918C229.802 12.2396 229.514 12.832 229.227 13.6953H231.664C231.579 12.9844 231.452 12.4258 231.283 12.0195C231.131 11.6133 230.953 11.4102 230.75 11.4102ZM228.795 32.2305V32.2559V32.2305Z" fill="black"/>
</svg>
